# xmcd CD database file
#
# Track frame offsets:
#	150
#	21233
#	38259
#	58721
#	77640
#	99330
#	117788
#	138207
#	158867
#	175985
#
# Disc length: 2629 seconds
#
# Revision: 0
# Processed by: cddbd v1.4PL0 Copyright (c) Steve Scherf et al.
# Submitted via: CDex 1.51
#
DISCID=700a430a
DTITLE=Ashley and Frank - In Slow Motion
DYEAR=1997
DGENRE=New Age
TTITLE0=New Beginnings
TTITLE1=Follow
TTITLE2=Birds Of Paradise
TTITLE3=Amore
TTITLE4=In Slow Motion
TTITLE5=Serene
TTITLE6=Emerald Trail
TTITLE7=Country Fair
TTITLE8=Bailey's Song
TTITLE9=Reflections
EXTD=YEAR: 1997
EXTT0=
EXTT1=
EXTT2=
EXTT3=
EXTT4=
EXTT5=
EXTT6=
EXTT7=
EXTT8=
EXTT9=
PLAYORDER=
